<svg xmlns="http://www.w3.org/2000/svg" viewBox="0 0 512 512">
  <defs>
    <linearGradient id="grad" x1="0%" y1="0%" x2="100%" y2="100%">
      <stop offset="0%" style="stop-color:#8b5cf6;stop-opacity:1" />
      <stop offset="100%" style="stop-color:#6366f1;stop-opacity:1" />
    </linearGradient>
  </defs>
  <rect width="512" height="512" rx="96" fill="url(#grad)"/>
  <g fill="white">
    <!-- Sound wave -->
    <rect x="120" y="200" width="24" height="112" rx="12"/>
    <rect x="168" y="160" width="24" height="192" rx="12"/>
    <rect x="216" y="128" width="24" height="256" rx="12"/>
    <rect x="264" y="160" width="24" height="192" rx="12"/>
    <rect x="312" y="200" width="24" height="112" rx="12"/>
    <!-- Arrow -->
    <path d="M360 256 L400 256 L400 232 L440 256 L400 280 L400 256" fill="white"/>
    <!-- Document icon -->
    <rect x="380" y="320" width="80" height="100" rx="8" fill="none" stroke="white" stroke-width="8"/>
    <line x1="400" y1="350" x2="440" y2="350" stroke="white" stroke-width="6"/>
    <line x1="400" y1="370" x2="440" y2="370" stroke="white" stroke-width="6"/>
    <line x1="400" y1="390" x2="430" y2="390" stroke="white" stroke-width="6"/>
  </g>
</svg>
